# This file uses centimeters as units for non-parametric coordinates.

mtllib asdf.mtl
g default
v -6.181978 -0.016589 -1.128855
v -6.193911 0.056407 -1.955234
v -6.210212 0.156121 -2.257709
v -6.226513 0.255836 -1.955234
v -6.238445 0.328832 -1.128855
v -6.242813 0.355551 0.000000
v -6.238445 0.328832 1.128855
v -6.226513 0.255836 1.955234
v -6.210212 0.156121 2.257709
v -6.193911 0.056407 1.955234
v -6.181978 -0.016589 1.128855
v -6.177611 -0.043308 0.000000
v -5.095461 0.740748 0.000000
v -5.086877 0.688240 -1.128855
v -5.063426 0.544787 -1.955234
v -5.031392 0.348827 -2.257709
v -4.999358 0.152866 -1.955234
v -4.975907 0.009413 -1.128855
v -4.967323 -0.043095 0.000000
v -4.975907 0.009413 1.128855
v -4.999358 0.152866 1.955234
v -5.031392 0.348827 2.257709
v -5.063426 0.544787 1.955234
v -5.086877 0.688240 1.128855
v -2.360848 1.658833 0.000000
v -2.342216 1.544859 -1.128855
v -2.291313 1.233478 -1.955234
v -2.221779 0.808123 -2.257709
v -2.152245 0.382768 -1.955234
v -2.101343 0.071387 -1.128855
v -2.082711 -0.042587 0.000000
v -2.101343 0.071387 1.128855
v -2.152245 0.382768 1.955234
v -2.221779 0.808123 2.257709
v -2.291313 1.233478 1.955234
v -2.342216 1.544859 1.128855
v 2.127690 3.165758 0.000000
v 2.162815 2.950895 -1.128855
v 2.258776 2.363881 -1.955234
v 2.389861 1.562003 -2.257709
v 2.520947 0.760125 -1.955234
v 2.616908 0.173110 -1.128855
v 2.652032 -0.041753 0.000000
v 2.616908 0.173110 1.128855
v 2.520947 0.760125 1.955234
v 2.389861 1.562003 2.257709
v 2.258776 2.363881 1.955234
v 2.162815 2.950895 1.128855
v 6.508079 0.385337 -1.054040
v 6.336521 0.258168 -1.141165
v 6.383593 1.146840 -1.825651
v 6.202672 1.068086 -1.960990
v 6.213543 2.187072 -2.108080
v 6.024264 2.156130 -2.255270
v 6.043493 3.227304 -1.825651
v 5.846912 3.244347 -1.960990
v 5.919008 3.988807 -1.054040
v 5.715886 4.054726 -1.141165
v 5.873443 4.267537 0.000000
v 5.666690 4.356059 0.000000
v 5.919008 3.988807 1.054040
v 5.715886 4.054726 1.141165
v 6.043493 3.227304 1.825651
v 5.846912 3.244347 1.960990
v 6.213543 2.187072 2.108080
v 6.024264 2.156130 2.255270
v 6.383593 1.146840 1.825651
v 6.202672 1.068086 1.960990
v 6.508079 0.385337 1.054040
v 6.336521 0.258168 1.141165
v 6.553643 0.106607 0.000000
v 6.385842 -0.043144 0.000000
v 7.099127 2.014156 -0.543040
v 7.136156 1.787647 -0.313524
v 7.048546 2.323573 -0.627049
v 6.997965 2.632990 -0.543040
v 6.960937 2.859499 -0.313524
v 6.947383 2.942407 0.000000
v 6.960936 2.859499 0.313524
v 6.997965 2.632990 0.543040
v 7.048546 2.323573 0.627049
v 7.099127 2.014156 0.543040
v 7.136156 1.787647 0.313524
v 7.149709 1.704738 0.000000
v 8.249381 2.296438 -0.381936
v 8.275424 2.137129 -0.220511
v 8.213806 2.514063 -0.441022
v 8.178230 2.731685 -0.381936
v 8.152188 2.890993 -0.220511
v 8.142655 2.949306 -0.000000
v 8.152187 2.890994 0.220511
v 8.178230 2.731686 0.381936
v 8.213806 2.514061 0.441022
v 8.249381 2.296438 0.381936
v 8.275424 2.137131 0.220511
v 8.284957 2.078817 0.000000
vt 0.001883 0.092382
vt 0.046715 0.046710
vt 0.046715 0.092382
vt 0.001883 0.550548
vt 0.046715 0.550548
vt 0.001883 0.505830
vt 0.046715 0.505830
vt 0.001883 0.460158
vt 0.046715 0.460158
vt 0.001883 0.413409
vt 0.046715 0.413409
vt 0.001883 0.366660
vt 0.046715 0.366660
vt 0.001883 0.320988
vt 0.046715 0.320988
vt 0.001883 0.276270
vt 0.046715 0.276270
vt 0.001883 0.231552
vt 0.046715 0.231552
vt 0.001883 0.185880
vt 0.046715 0.185880
vt 0.001883 0.139131
vt 0.046715 0.139131
vt 0.153566 0.413409
vt 0.153566 0.460158
vt 0.153566 0.505830
vt 0.153566 0.550548
vt 0.153566 0.046710
vt 0.153566 0.092382
vt 0.153566 0.139131
vt 0.153566 0.185880
vt 0.153566 0.231552
vt 0.153566 0.276270
vt 0.153566 0.320988
vt 0.153566 0.366660
vt 0.328950 0.413409
vt 0.328950 0.460158
vt 0.328950 0.505830
vt 0.328950 0.550548
vt 0.328950 0.046710
vt 0.328950 0.092382
vt 0.328950 0.139131
vt 0.328950 0.185880
vt 0.328950 0.231552
vt 0.328950 0.276270
vt 0.328950 0.320988
vt 0.328950 0.366660
vt 0.474368 0.092382
vt 0.467243 0.092382
vt 0.474368 0.046710
vt 0.474368 0.139131
vt 0.467245 0.139131
vt 0.467169 0.550548
vt 0.474368 0.550548
vt 0.467189 0.505830
vt 0.474368 0.505830
vt 0.467243 0.460158
vt 0.474368 0.460158
vt 0.467245 0.413409
vt 0.474368 0.413409
vt 0.467243 0.366660
vt 0.474368 0.366660
vt 0.467189 0.320988
vt 0.474368 0.320988
vt 0.467169 0.276270
vt 0.474368 0.276270
vt 0.467189 0.231552
vt 0.474368 0.231552
vt 0.467243 0.185880
vt 0.474368 0.185880
vt 0.550439 0.092382
vt 0.550439 0.550547
vt 0.550439 0.505830
vt 0.550439 0.460158
vt 0.550439 0.413409
vt 0.550439 0.366660
vt 0.550439 0.320988
vt 0.550439 0.276270
vt 0.550439 0.231552
vt 0.550439 0.185880
vt 0.550439 0.139131
vt 0.506123 0.046710
vt 0.506123 0.092382
vt 0.506123 0.550548
vt 0.506123 0.505830
vt 0.506123 0.460158
vt 0.506123 0.413409
vt 0.506123 0.366660
vt 0.506123 0.320988
vt 0.506123 0.276270
vt 0.506123 0.231552
vt 0.506123 0.185880
vt 0.506123 0.139131
vt 0.001883 0.046710
vt 0.001883 0.001992
vt 0.046715 0.001992
vt 0.153566 0.001992
vt 0.467169 0.001992
vt 0.550439 0.046710
vt 0.550439 0.001992
vt 0.328950 0.001992
vt 0.467189 0.046710
vt 0.474368 0.001992
vt 0.506123 0.001992
vn 0.027767 -0.996725 -0.075943
vn 0.068165 -0.972092 -0.224481
vn 0.064656 -0.923093 -0.379102
vn 0.027576 -0.990558 -0.134292
vn -0.081075 -0.013254 -0.996620
vn -0.081075 -0.013254 -0.996620
vn -0.244933 0.943195 -0.224481
vn -0.232656 0.895630 -0.379102
vn -0.291072 0.953682 -0.075943
vn -0.289290 0.947775 -0.134292
vn -0.308134 0.951343 -0.000000
vn -0.308134 0.951343 0.000000
vn -0.291072 0.953682 0.075943
vn -0.289290 0.947775 0.134292
vn -0.244933 0.943195 0.224481
vn -0.232656 0.895630 0.379102
vn -0.081075 -0.013253 0.996620
vn -0.081075 -0.013253 0.996620
vn 0.068165 -0.972092 0.224481
vn 0.064656 -0.923093 0.379102
vn 0.027767 -0.996725 0.075943
vn 0.027576 -0.990558 0.134292
vn 0.010848 -0.999941 0.000000
vn 0.010848 -0.999941 0.000000
vn -0.308134 0.951343 0.000000
vn -0.282623 0.925996 -0.250312
vn -0.198291 0.763317 -0.614839
vn -0.038684 -0.006324 -0.999232
vn -0.024098 -0.003939 -0.999702
vn 0.055099 -0.786725 -0.614839
vn 0.026960 -0.967790 -0.250312
vn 0.010849 -0.999941 -0.000000
vn 0.026960 -0.967790 0.250312
vn 0.055099 -0.786725 0.614839
vn -0.038684 -0.006324 0.999232
vn -0.024098 -0.003939 0.999702
vn -0.198291 0.763317 0.614839
vn -0.282623 0.925996 0.250312
vn -0.308134 0.951343 -0.000000
vn -0.271793 0.889752 -0.366701
vn -0.162675 0.625134 -0.763377
vn -0.015735 -0.002572 -0.999873
vn 0.044859 -0.644394 -0.763377
vn 0.025685 -0.929984 -0.366701
vn 0.010848 -0.999941 -0.000000
vn 0.025685 -0.929984 0.366701
vn 0.044859 -0.644394 0.763377
vn -0.015735 -0.002572 0.999873
vn -0.162675 0.625134 0.763377
vn -0.271793 0.889752 0.366701
vn 0.666818 -0.627333 -0.402253
vn 0.059743 -0.897689 -0.436560
vn 0.076253 -0.559514 -0.825306
vn 0.652725 -0.312184 -0.690283
vn 0.666392 -0.745601 0.000000
vn 0.045388 -0.998969 0.000000
vn 0.026144 0.004274 -0.999649
vn 0.602804 0.098542 -0.791781
vn -0.105886 0.554670 -0.825306
vn 0.519338 0.503785 -0.690282
vn -0.229224 0.869984 -0.436560
vn 0.432341 0.807015 -0.402252
vn -0.275084 0.961420 -0.000000
vn 0.394276 0.918992 0.000000
vn -0.229224 0.869984 0.436560
vn 0.432341 0.807016 0.402252
vn -0.105886 0.554670 0.825306
vn 0.519338 0.503785 0.690282
vn 0.026144 0.004274 0.999649
vn 0.602804 0.098542 0.791781
vn 0.076253 -0.559514 0.825306
vn 0.652725 -0.312184 0.690283
vn 0.059743 -0.897689 0.436560
vn 0.666818 -0.627333 0.402253
vn 0.907526 -0.216385 -0.359963
vn 0.907526 -0.216385 -0.359963
vn 0.907526 -0.216385 -0.359963
vn 0.907527 -0.216385 -0.359963
vn 0.870710 0.008833 -0.491718
vn 0.870710 0.008833 -0.491718
vn 0.870710 0.008833 -0.491718
vn 0.870710 0.008833 -0.491718
vn 0.828197 0.268892 -0.491719
vn 0.828197 0.268892 -0.491719
vn 0.828197 0.268892 -0.491719
vn 0.828197 0.268892 -0.491719
vn 0.791380 0.494110 -0.359963
vn 0.791380 0.494110 -0.359963
vn 0.791380 0.494111 -0.359963
vn 0.791380 0.494111 -0.359963
vn 0.770123 0.624140 -0.131756
vn 0.770123 0.624140 -0.131756
vn 0.770123 0.624140 -0.131756
vn 0.770123 0.624140 -0.131756
vn 0.770123 0.624140 0.131755
vn 0.770123 0.624140 0.131755
vn 0.770123 0.624140 0.131755
vn 0.770123 0.624140 0.131755
vn 0.791380 0.494111 0.359962
vn 0.791380 0.494111 0.359962
vn 0.791380 0.494111 0.359962
vn 0.791380 0.494111 0.359962
vn 0.828197 0.268892 0.491718
vn 0.828197 0.268892 0.491718
vn 0.828197 0.268892 0.491718
vn 0.828197 0.268892 0.491718
vn 0.870710 0.008833 0.491718
vn 0.870710 0.008833 0.491718
vn 0.870710 0.008833 0.491718
vn 0.870710 0.008833 0.491718
vn 0.907526 -0.216385 0.359963
vn 0.907526 -0.216385 0.359963
vn 0.907526 -0.216385 0.359963
vn 0.907526 -0.216385 0.359963
vn 0.928783 -0.346414 0.131755
vn 0.928783 -0.346414 0.131755
vn 0.928783 -0.346414 0.131755
vn 0.928783 -0.346414 0.131755
vn 0.928783 -0.346414 -0.131755
vn 0.928783 -0.346414 -0.131755
vn 0.928783 -0.346414 -0.131755
vn 0.928783 -0.346414 -0.131755
vn 0.261261 -0.665630 -0.699057
vn 0.261261 -0.665630 -0.699057
vn 0.261261 -0.665630 -0.699057
vn 0.261261 -0.665630 -0.699057
vn 0.189761 -0.228247 -0.954931
vn 0.189761 -0.228247 -0.954931
vn 0.189761 -0.228247 -0.954931
vn 0.189761 -0.228247 -0.954931
vn 0.107200 0.276794 -0.954931
vn 0.107200 0.276794 -0.954931
vn 0.107200 0.276794 -0.954931
vn 0.107200 0.276794 -0.954931
vn 0.035700 0.714176 -0.699055
vn 0.035700 0.714176 -0.699055
vn 0.035700 0.714176 -0.699055
vn 0.035700 0.714176 -0.699055
vn -0.005579 0.966693 -0.255877
vn -0.005579 0.966693 -0.255877
vn -0.005579 0.966693 -0.255877
vn -0.005579 0.966693 -0.255877
vn -0.005580 0.966694 0.255873
vn -0.005580 0.966694 0.255873
vn -0.005580 0.966694 0.255873
vn -0.005580 0.966694 0.255873
vn 0.035700 0.714175 0.699056
vn 0.035700 0.714175 0.699056
vn 0.035700 0.714175 0.699056
vn 0.035700 0.714175 0.699056
vn 0.107201 0.276793 0.954931
vn 0.107201 0.276793 0.954931
vn 0.107201 0.276793 0.954931
vn 0.107201 0.276793 0.954931
vn 0.189761 -0.228249 0.954931
vn 0.189761 -0.228248 0.954931
vn 0.189761 -0.228248 0.954931
vn 0.189761 -0.228249 0.954931
vn 0.261262 -0.665630 0.699055
vn 0.261262 -0.665630 0.699055
vn 0.261262 -0.665630 0.699055
vn 0.261262 -0.665630 0.699055
vn 0.302542 -0.918148 0.255877
vn 0.302542 -0.918148 0.255877
vn 0.302542 -0.918148 0.255877
vn 0.302542 -0.918148 0.255877
vn 0.302542 -0.918149 -0.255874
vn 0.302542 -0.918149 -0.255874
vn 0.302542 -0.918149 -0.255874
vn 0.302542 -0.918149 -0.255874
s 1
g tube toothpaste
usemtl lambert2SG
f 1/1/1 2/94/2 17/2/3 18/3/4
f 2/94/2 3/95/5 16/96/6 17/2/3
f 3/4/5 4/6/7 15/7/8 16/5/6
f 4/6/7 5/8/9 14/9/10 15/7/8
f 5/8/9 6/10/11 13/11/12 14/9/10
f 6/10/11 7/12/13 24/13/14 13/11/12
f 7/12/13 8/14/15 23/15/16 24/13/14
f 8/14/15 9/16/17 22/17/18 23/15/16
f 9/16/17 10/18/19 21/19/20 22/17/18
f 10/18/19 11/20/21 20/21/22 21/19/20
f 11/20/21 12/22/23 19/23/24 20/21/22
f 12/22/23 1/1/1 18/3/4 19/23/24
f 14/9/10 13/11/12 25/24/25 26/25/26
f 15/7/8 14/9/10 26/25/26 27/26/27
f 16/5/28 15/7/8 27/26/27 28/27/29
f 17/2/3 16/96/28 28/97/29 29/28/30
f 18/3/4 17/2/3 29/28/30 30/29/31
f 19/23/24 18/3/4 30/29/31 31/30/32
f 20/21/22 19/23/24 31/30/32 32/31/33
f 21/19/20 20/21/22 32/31/33 33/32/34
f 22/17/35 21/19/20 33/32/34 34/33/36
f 23/15/16 22/17/35 34/33/36 35/34/37
f 24/13/14 23/15/16 35/34/37 36/35/38
f 13/11/12 24/13/14 36/35/38 25/24/25
f 26/25/26 25/24/25 37/36/39 38/37/40
f 27/26/27 26/25/26 38/37/40 39/38/41
f 28/27/29 27/26/27 39/38/41 40/39/42
f 29/28/30 28/97/29 40/101/42 41/40/43
f 30/29/31 29/28/30 41/40/43 42/41/44
f 31/30/32 30/29/31 42/41/44 43/42/45
f 32/31/33 31/30/32 43/42/45 44/43/46
f 33/32/34 32/31/33 44/43/46 45/44/47
f 34/33/36 33/32/34 45/44/47 46/45/48
f 35/34/37 34/33/36 46/45/48 47/46/49
f 36/35/38 35/34/37 47/46/49 48/47/50
f 25/24/25 36/35/38 48/47/50 37/36/39
f 49/48/51 50/49/52 52/102/53 51/50/54
f 50/49/52 49/48/51 71/51/55 72/52/56
f 51/50/54 52/102/53 54/98/57 53/103/58
f 53/54/58 54/53/57 56/55/59 55/56/60
f 55/56/60 56/55/59 58/57/61 57/58/62
f 57/58/62 58/57/61 60/59/63 59/60/64
f 59/60/64 60/59/63 62/61/65 61/62/66
f 61/62/66 62/61/65 64/63/67 63/64/68
f 63/64/68 64/63/67 66/65/69 65/66/70
f 65/66/70 66/65/69 68/67/71 67/68/72
f 67/68/72 68/67/71 70/69/73 69/70/74
f 69/70/74 70/69/73 72/52/56 71/51/55
f 38/37/40 37/36/39 60/59/63 58/57/61
f 39/38/41 38/37/40 58/57/61 56/55/59
f 40/39/42 39/38/41 56/55/59 54/53/57
f 41/40/43 40/101/42 54/98/57 52/102/53
f 42/41/44 41/40/43 52/102/53 50/49/52
f 43/42/45 42/41/44 50/49/52 72/52/56
f 44/43/46 43/42/45 72/52/56 70/69/73
f 45/44/47 44/43/46 70/69/73 68/67/71
f 46/45/48 45/44/47 68/67/71 66/65/69
f 47/46/49 46/45/48 66/65/69 64/63/67
f 48/47/50 47/46/49 64/63/67 62/61/65
f 37/36/39 48/47/50 62/61/65 60/59/63
s off
f 49/48/75 51/50/76 73/82/77 74/83/78
f 51/50/79 53/103/80 75/104/81 73/82/82
f 53/54/83 55/56/84 76/85/85 75/84/86
f 55/56/87 57/58/88 77/86/89 76/85/90
f 57/58/91 59/60/92 78/87/93 77/86/94
f 59/60/95 61/62/96 79/88/97 78/87/98
f 61/62/99 63/64/100 80/89/101 79/88/102
f 63/64/103 65/66/104 81/90/105 80/89/106
f 65/66/107 67/68/108 82/91/109 81/90/110
f 67/68/111 69/70/112 83/92/113 82/91/114
f 69/70/115 71/51/116 84/93/117 83/92/118
f 71/51/119 49/48/120 74/83/121 84/93/122
f 74/83/123 73/82/124 85/99/125 86/71/126
f 73/82/127 75/104/128 87/100/129 85/99/130
f 75/84/131 76/85/132 88/73/133 87/72/134
f 76/85/135 77/86/136 89/74/137 88/73/138
f 77/86/139 78/87/140 90/75/141 89/74/142
f 78/87/143 79/88/144 91/76/145 90/75/146
f 79/88/147 80/89/148 92/77/149 91/76/150
f 80/89/151 81/90/152 93/78/153 92/77/154
f 81/90/155 82/91/156 94/79/157 93/78/158
f 82/91/159 83/92/160 95/80/161 94/79/162
f 83/92/163 84/93/164 96/81/165 95/80/166
f 84/93/167 74/83/168 86/71/169 96/81/170
g default
v 9.107795 2.139642 -0.296610
v 9.072765 2.353929 -0.513744
v 9.024912 2.646656 0.000000
v 9.024912 2.646657 -0.593221
v 8.977059 2.939382 -0.513744
v 8.942029 3.153667 -0.296610
v 8.929207 3.232105 -0.000000
v 8.942029 3.153670 0.296610
v 8.977059 2.939383 0.513744
v 9.024912 2.646655 0.593221
v 9.072765 2.353930 0.513744
v 9.107795 2.139644 0.296610
v 9.120617 2.061206 -0.000000
v 7.575361 1.669552 -0.421723
v 7.525554 1.974230 -0.730447
v 7.457517 2.390429 -0.843445
v 7.389479 2.806626 -0.730447
v 7.339673 3.111305 -0.421723
v 7.321442 3.222825 -0.000000
v 7.339673 3.111305 0.421723
v 7.389479 2.806627 0.730447
v 7.457517 2.390429 0.843445
v 7.525554 1.974230 0.730447
v 7.575361 1.669552 0.421723
v 7.593591 1.558032 -0.000000
v 7.491535 2.182329 -0.365223
v 7.516439 2.029990 -0.210862
v 7.457517 2.390428 -0.421723
v 7.423498 2.598527 -0.365223
v 7.398595 2.750866 -0.210862
v 7.389479 2.806627 -0.000000
v 7.398595 2.750867 0.210862
v 7.423498 2.598528 0.365223
v 7.457517 2.390428 0.421723
v 7.491535 2.182329 0.365223
v 7.516439 2.029990 0.210862
v 7.525554 1.974230 -0.000000
vt 0.347125 0.666759
vt 0.320733 0.693151
vt 0.284681 0.630707
vt 0.284681 0.702811
vt 0.356785 0.630707
vt 0.248629 0.693151
vt 0.347125 0.594655
vt 0.222237 0.666759
vt 0.320733 0.568263
vt 0.212577 0.630707
vt 0.284681 0.558603
vt 0.222237 0.594655
vt 0.248629 0.568263
vt 0.672840 0.133792
vt 0.690193 0.085560
vt 0.871836 0.150911
vt 0.859631 0.184834
vt 0.707546 0.037327
vt 0.884041 0.116987
vt 0.660428 0.169163
vt 0.850405 0.209606
vt 0.720250 0.002019
vt 0.892975 0.092154
vt 0.698778 0.544386
vt 0.683762 0.495375
vt 0.868334 0.438825
vt 0.878896 0.473296
vt 0.668746 0.446365
vt 0.857773 0.404355
vt 0.658047 0.410439
vt 0.849748 0.379168
vt 0.104402 0.711095
vt 0.654087 0.359309
vt 0.846462 0.343288
vt 0.104402 0.762354
vt 0.649833 0.308226
vt 0.843470 0.307360
vt 0.647016 0.270847
vt 0.840983 0.281044
vt 0.130031 0.704227
vt 0.654016 0.220044
vt 0.845400 0.245286
vt 0.155661 0.748619
vt 0.148793 0.685465
vt 0.193185 0.711095
vt 0.015618 0.608577
vt 0.053143 0.571052
vt 0.078772 0.615444
vt 0.060010 0.634206
vt 0.104402 0.557317
vt 0.104402 0.608577
vt 0.001883 0.659836
vt 0.053142 0.659836
vt 0.155661 0.571052
vt 0.130031 0.615444
vt 0.015618 0.711095
vt 0.060010 0.685465
vt 0.193185 0.608577
vt 0.148793 0.634206
vt 0.053143 0.748619
vt 0.078772 0.704227
vt 0.206920 0.659836
vt 0.155661 0.659836
vn 0.986900 0.161332 -0.000003
vn 0.986900 0.161332 -0.000001
vn 0.986900 0.161332 -0.000000
vn 0.986900 0.161332 -0.000000
vn 0.986900 0.161332 -0.000000
vn 0.986900 0.161332 0.000004
vn 0.986900 0.161332 -0.000000
vn 0.986900 0.161332 -0.000005
vn 0.986900 0.161332 -0.000003
vn 0.986900 0.161332 -0.000000
vn 0.986900 0.161332 0.000002
vn 0.986900 0.161332 0.000003
vn 0.986900 0.161332 0.000000
vn 0.261261 -0.665630 -0.699056
vn 0.261261 -0.665630 -0.699056
vn 0.261261 -0.665630 -0.699056
vn 0.261261 -0.665630 -0.699056
vn 0.189761 -0.228245 -0.954932
vn 0.189761 -0.228245 -0.954932
vn 0.189761 -0.228245 -0.954932
vn 0.189761 -0.228245 -0.954932
vn 0.107201 0.276792 -0.954932
vn 0.107201 0.276792 -0.954932
vn 0.107201 0.276792 -0.954932
vn 0.107201 0.276792 -0.954932
vn 0.035700 0.714177 -0.699054
vn 0.035700 0.714177 -0.699054
vn 0.035700 0.714177 -0.699054
vn 0.035700 0.714177 -0.699054
vn -0.005579 0.966693 -0.255877
vn -0.005579 0.966693 -0.255877
vn -0.005579 0.966693 -0.255877
vn -0.005579 0.966693 -0.255877
vn -0.005580 0.966694 0.255873
vn -0.005580 0.966694 0.255873
vn -0.005580 0.966694 0.255873
vn -0.005580 0.966694 0.255873
vn 0.035700 0.714176 0.699055
vn 0.035700 0.714176 0.699055
vn 0.035700 0.714176 0.699055
vn 0.035700 0.714176 0.699055
vn 0.107201 0.276790 0.954932
vn 0.107201 0.276790 0.954932
vn 0.107201 0.276790 0.954932
vn 0.107201 0.276790 0.954932
vn 0.189761 -0.228246 0.954932
vn 0.189761 -0.228246 0.954932
vn 0.189761 -0.228246 0.954932
vn 0.189761 -0.228246 0.954932
vn 0.261262 -0.665632 0.699054
vn 0.261262 -0.665632 0.699054
vn 0.261262 -0.665632 0.699054
vn 0.261262 -0.665632 0.699054
vn 0.302542 -0.918148 0.255877
vn 0.302542 -0.918148 0.255877
vn 0.302542 -0.918148 0.255877
vn 0.302542 -0.918148 0.255878
vn 0.302542 -0.918149 -0.255875
vn 0.302542 -0.918149 -0.255875
vn 0.302542 -0.918149 -0.255875
vn 0.302542 -0.918149 -0.255875
vn -0.986900 -0.161332 0.000001
vn -0.986900 -0.161332 0.000001
vn -0.986900 -0.161332 0.000001
vn -0.986900 -0.161332 0.000001
vn -0.986900 -0.161332 0.000001
vn -0.986900 -0.161332 0.000001
vn -0.986900 -0.161332 0.000000
vn -0.986900 -0.161332 0.000000
vn -0.986900 -0.161332 0.000000
vn -0.986900 -0.161332 0.000000
vn -0.986900 -0.161332 0.000000
vn -0.986900 -0.161332 0.000000
vn -0.986900 -0.161332 -0.000001
vn -0.986900 -0.161332 -0.000001
vn -0.986900 -0.161332 -0.000001
vn -0.986900 -0.161332 -0.000001
vn -0.986900 -0.161332 -0.000001
vn -0.986900 -0.161332 -0.000001
vn -0.986900 -0.161332 -0.000000
vn -0.986900 -0.161332 0.000000
vn -0.986900 -0.161332 -0.000001
vn -0.986900 -0.161332 -0.000001
vn -0.986900 -0.161332 -0.000001
vn -0.986900 -0.161332 -0.000001
s 1
g toothpaste cap
usemtl lambert2SG
f 97/105/171 98/106/172 99/107/173
f 98/106/172 100/108/174 99/107/173
f 100/108/174 101/110/175 99/107/173
f 101/110/175 102/112/176 99/107/173
f 102/112/176 103/114/177 99/107/173
f 103/114/177 104/116/178 99/107/173
f 104/116/178 105/117/179 99/107/173
f 105/117/179 106/115/180 99/107/173
f 106/115/180 107/113/181 99/107/173
f 107/113/181 108/111/182 99/107/173
f 108/111/182 109/109/183 99/107/173
f 109/109/183 97/105/171 99/107/173
s off
f 110/124/184 111/118/185 98/121/186 97/125/187
f 111/118/188 112/119/189 100/120/190 98/121/191
f 112/119/192 113/122/193 101/123/194 100/120/195
f 113/122/196 114/126/197 102/127/198 101/123/199
f 114/128/200 115/129/201 103/130/202 102/131/203
f 115/129/204 116/132/205 104/133/206 103/130/207
f 116/132/208 117/134/209 105/135/210 104/133/211
f 117/134/212 118/137/213 106/138/214 105/135/215
f 118/137/216 119/140/217 107/141/218 106/138/219
f 119/140/220 120/142/221 108/143/222 107/141/223
f 120/142/224 121/145/225 109/146/226 108/143/227
f 121/145/228 110/124/229 97/125/230 109/146/231
s 2
f 111/150/232 110/151/233 123/152/234 122/153/235
f 112/156/236 111/150/232 122/153/235 124/157/237
f 113/160/238 112/156/236 124/157/237 125/161/239
f 114/164/240 113/160/238 125/161/239 126/165/241
f 115/139/242 114/164/240 126/165/241 127/136/243
f 116/147/244 115/139/242 127/136/243 128/144/245
f 117/149/246 116/147/244 128/144/245 129/148/247
f 118/166/248 117/149/246 129/148/247 130/167/249
f 119/162/250 118/166/248 130/167/249 131/163/251
f 120/158/252 119/162/250 131/163/251 132/159/253
f 121/154/254 120/158/252 132/159/253 133/155/255
f 110/151/233 121/154/254 133/155/255 123/152/234
